<svg width="64" height="64" viewBox="0 0 64 64" xmlns="http://www.w3.org/2000/svg">
  <defs>
    <linearGradient id="bg" x1="0" y1="0" x2="1" y2="1">
      <stop offset="0%" stop-color="#4f46e5" />
      <stop offset="60%" stop-color="#7c3aed" />
      <stop offset="100%" stop-color="#ec4899" />
    </linearGradient>
    <linearGradient id="pen" x1="0" y1="0" x2="1" y2="1">
      <stop offset="0%" stop-color="#fdf4ff" stop-opacity="0.95" />
      <stop offset="100%" stop-color="#e0e7ff" stop-opacity="0.95" />
    </linearGradient>
    <filter id="shadow" x="-20%" y="-20%" width="140%" height="140%">
      <feDropShadow dx="0" dy="2" stdDeviation="3" flood-color="#1f2937" flood-opacity="0.35" />
    </filter>
  </defs>
  <rect width="64" height="64" rx="14" fill="url(#bg)" />
  <g filter="url(#shadow)">
    <path
      d="M20 42c0-4.418 3.582-8 8-8h4c4.418 0 8-3.582 8-8s-3.582-8-8-8h-5"
      fill="none"
      stroke="#fdf4ff"
      stroke-width="5"
      stroke-linecap="round"
      stroke-linejoin="round"
      opacity="0.5"
    />
    <path
      d="M42 18l-8.5 20.5c-.31.74-.94 1.33-1.72 1.57L20 44l3.93-11.68c.24-.72.81-1.29 1.53-1.53L46 20"
      fill="url(#pen)"
      stroke="#ede9fe"
      stroke-width="2"
      stroke-linejoin="round"
    />
    <path
      d="M27 33l4 4"
      stroke="#7c3aed"
      stroke-width="2"
      stroke-linecap="round"
      opacity="0.8"
    />
  </g>
</svg>
